<svg xmlns="http://www.w3.org/2000/svg" viewBox="0 0 179.37 296.49"><defs><style>.cls-1,.cls-2,.cls-3,.cls-4,.cls-5,.cls-6,.cls-7{fill:none;stroke:#231f20;}.cls-1,.cls-2,.cls-3,.cls-4,.cls-6{stroke-linecap:round;}.cls-1,.cls-3,.cls-4,.cls-5,.cls-6,.cls-7{stroke-linejoin:round;}.cls-1{stroke-width:1.07px;}.cls-2{stroke-miterlimit:10;}.cls-2,.cls-3,.cls-5{stroke-width:1.5px;}.cls-6{stroke-width:2.01px;}.cls-8{fill:#231f20;}</style></defs><title>Asset 1</title><g id="Layer_2" data-name="Layer 2"><g id="Layer_1-2" data-name="Layer 1"><path class="cls-1" d="M117.89,26.88c-1.07-2-3.54-1.38-6.59.07s-4.59,4-3.36,5.68c1.07,1.42,3.8,1.25,6.55-.34S118.75,28.44,117.89,26.88Z"/><path class="cls-1" d="M112.4,33.23l9.8,17.21A2.41,2.41,0,0,0,125.13,49l-9.79-17.21"/><path class="cls-2" d="M130.54,175.34a251,251,0,0,1,5.54,36.27c.47,5.1,1.13,10.36,1.12,15.46,0,6.54-1.6,16.23,3.38,21.39,4.36,4.51,10-1.19,12.79-4.62,12.67-15.33,16.5-41.33,2-89.5"/><path class="cls-3" d="M137.19,226.26l-.92.2c-.87.18-1.74.36-2.61.52-1.37.26-2.74.49-4.11.71-1.78.29-3.57.54-5.37.77-2.14.28-4.28.51-6.42.71-2.42.22-4.85.39-7.27.5-2.63.13-5.27.19-7.9.18s-5.55-.09-8.31-.27-5.69-.47-8.51-.86-5.7-.92-8.5-1.57A79.08,79.08,0,0,1,69,224.73a63.8,63.8,0,0,1-7.83-3.39A51.24,51.24,0,0,1,54,216.85a44.34,44.34,0,0,1-6.3-5.72q-1.22-1.33-2.31-2.76a7.83,7.83,0,0,1-1.15-1.62,3.15,3.15,0,0,1,2-4.1,1.13,1.13,0,0,1,.6-.08c.35.07.5.48.69.74s.55.8.84,1.19a26.85,26.85,0,0,0,1.83,2.28c.73.8,1.5,1.58,2.29,2.32,1,.9,2,1.75,3.05,2.55q1.88,1.42,3.88,2.67a53.64,53.64,0,0,0,4.76,2.62c1.87.92,3.79,1.73,5.74,2.46,2.22.83,4.48,1.54,6.77,2.15,2.59.69,5.22,1.25,7.87,1.7,3,.51,6,.88,9.06,1.13,3.43.28,6.87.4,10.31.4,3.88,0,7.75-.16,11.62-.45q6.54-.5,13-1.45c2.82-.4,5.64-.87,8.44-1.38"/><path class="cls-3" d="M164.12,216.63s9.12-5.17,10.79-8.12-.75-4.21-.75-4.21a2.67,2.67,0,0,0-3.5.33,36.66,36.66,0,0,1-6,5.29"/><path class="cls-3" d="M46.49,231.05s-5.93-12.55-.9-22.42"/><path class="cls-4" d="M116,39.59C107,38.73,97.44,38,88,37.38L78,65,165.7,78.26,175,46.76S150.46,43,120,40"/><path class="cls-4" d="M78,65l4.42,5.83S117.45,76.17,169.29,83l9.58-30.84L175,46.76"/><line class="cls-4" x1="169.29" y1="83.01" x2="165.7" y2="78.26"/><path class="cls-4" d="M85.86,43.16s3.59,3.35,10.34,2.35,15,2.5,17.81,4.93"/><path class="cls-4" d="M91.83,52.19s5.62-1.31,14.37,1.07"/><path class="cls-4" d="M134.64,49.07s20.94,3.06,33.69,5.94"/><path class="cls-4" d="M128.14,60s15.12,5.31,25.12,2.12,16.88,1,16.88,1"/><path class="cls-4" d="M153.2,69.69a48,48,0,0,1,14.68,1.16"/><path class="cls-3" d="M24.62,226.42s15.75,11.09,12.75,34.25c0,0,12.58-3.66,21-8.41"/><path class="cls-3" d="M54.29,246.76S59.12,258.34,78,260.67"/><path class="cls-3" d="M80.14,268.57a11.58,11.58,0,0,1-2-4.43,5.88,5.88,0,0,1,.35-3.7c.76-1.6,2.37-2.62,3.74-3.65a25.79,25.79,0,0,1,12.94-5,32.22,32.22,0,0,1,5-.11"/><path class="cls-3" d="M37.67,257.51a81.36,81.36,0,0,1-22,2.31c-11.94-.44-9.87-10.5-5.81-16.88s6.91-9.42,15.92-15.55"/><path class="cls-3" d="M20,231.58s-2.18-10.87,7-12,16.53-1.92,16.53-1.92"/><path class="cls-3" d="M84.45,262.41s25.25.85,28,24.6"/><path class="cls-3" d="M86.3,263S75,273.26,75.2,287.34c0,0-.41,7.5,9.75,8.33s22.91-6.45,27.08-11.35"/><path class="cls-3" d="M108.06,287.86a19,19,0,0,0,4.64,2.73c2.13.71,8-5.71,8-5.71a106.54,106.54,0,0,1,21.59-17.25c12-6.94,25.93-18.81,29.62-30.94s.89-25.94.89-25.94"/><path class="cls-3" d="M172.1,203.81c.88-6.79-.21-14-1.42-20.68a142.26,142.26,0,0,0-6.78-24.66A150.9,150.9,0,0,1,156.53,130c-1.39-8.32-1.59-16.64-2.37-25-.73-7.9-.85-15.94-.95-23.88"/><path class="cls-5" d="M37.37,260.67s-1.76.16-2.07-2.61"/><path class="cls-3" d="M65.16,206.38s1.67,7.33,9.79,3.17"/><path class="cls-3" d="M67.2,203.46s1.46,3.55,6,1.8"/><path class="cls-3" d="M79.41,137s22.21-8.84,49.5,8.37"/><path class="cls-3" d="M47.85,203.81c-1.3-6.26.44-13.31,3-19,2.28-5,5.67-9.33,8.93-13.67,5.79-7.69,12.45-14.59,18.37-22.16,3.13-5.17,1.21-12,1.21-12"/><ellipse class="cls-3" cx="117.51" cy="109.22" rx="18.53" ry="12.12" transform="translate(-14.24 200.76) rotate(-77.7)"/><path class="cls-3" d="M106,119.15c-2.87,3.49-6.56,5.34-10.08,4.57-6.07-1.33-9.36-9.93-7.33-19.22s8.59-15.74,14.67-14.42c3.07.67,5.43,3.21,6.75,6.75"/><polyline class="cls-6" points="96.5 84.09 108.63 79.78 97.62 86.23 109.37 82.05"/><polyline class="cls-6" points="123.73 81.67 132.81 90.8 122.27 83.59 131.07 92.44"/><path class="cls-3" d="M83.49,135.82s4.35-4.83,7.75-14.89"/><path class="cls-5" d="M106.18,74.33s-1.26,9-4.42,15.58"/><path class="cls-3" d="M39.33,141.51c-2.35,2.51-5.63,5-9.14,5.43-3.33.38-5.9-1.7-5.8-5.07a11.3,11.3,0,0,1,3.52-7.63,16.65,16.65,0,0,1,5-3c2.84-1.12,6.3-1,8.7,1a8.91,8.91,0,0,1,2.79,6.57,17.58,17.58,0,0,1-3.29,10.54"/><path class="cls-3" d="M42.29,147.67a30,30,0,0,0,8.25,5.5c4.25,1.67,13.66-.29,14.33-.46s9.39-1.66,14.42-6.12"/><path class="cls-3" d="M26.2,136.28s-5-3.82-2.19-7.9"/><path class="cls-3" d="M24,128.38s-11.43,3.94-14,15.25A16.33,16.33,0,0,0,13,157.57c4.24,5.66,12.65,6.26,18.42,2.68,5.22-3.23,6.55-10.14,4.3-15.55"/><path class="cls-4" d="M5.16,94.23C1.61,94.33.65,98.39.51,104c-.14,5.39,2.39,9.8,5.6,9.23,2.8-.49,4.52-4.63,4.26-9.87S8,94.15,5.16,94.23Z"/><path class="cls-4" d="M3.07,112.14s4,8,9.94.55c0,0,2.22-5.43,6.72-5,0,0,5.39-.1,8.39,1.65s5,1.17,7.12-2.71,7-3.25,8.71,2.71c0,.18,1.1.41,1.25.45a3,3,0,0,0,2.09,0c.81-.44.6-1.52.39-2.24a13.07,13.07,0,0,0-1.14-2.53,16.87,16.87,0,0,0-1.71-2.78c-.7-.86-1.67-1.44-2.4-2.28a12.22,12.22,0,0,1-2.69-6c-.8-4.73-6.2-4.59-9.94-4.35-1.34.08-2.67.21-4,.31-1.78.14-3.86-.18-5.44.81a5,5,0,0,0-2.07,3.89c-.5,5.21-4.13,4.17-4.13,4.17s-5.46-6.26-9-4.61"/><path class="cls-7" d="M35.69,106a4.65,4.65,0,0,1,2.64,3.79c.25,2.79,3,1.27,2.21-5.14"/><path class="cls-7" d="M24.39,134.36l-.1-11.53c0-4.15.28-8.58-.78-12.63-.18-.69-.4-1.94-1.07-2.34"/><path class="cls-7" d="M31.31,132s.27-13.17-1-21.75"/><path class="cls-7" d="M22.44,90a2.46,2.46,0,0,1,.45-1.62c.63-.82,1.87-.8,2.81-.76s2.48-.21,3.32.36a1.18,1.18,0,0,1,.37,1.6"/><path class="cls-7" d="M24.68,162.43s.66,14.91-2.24,17.83,1.51,5.25,1.89,5.25,6.06-.5,7.25-3.41a9.46,9.46,0,0,0,.31-6.34c-.31-1.63-1.29-5.45-.52-15.51"/><path class="cls-5" d="M31.14,128.57s4.14.2,6.52,2.12"/><path class="cls-5" d="M49,189.88S37.29,189,32,180.76"/><path class="cls-4" d="M49,212.46s-2,6.25-.92,10.21,3.12,3.88,5.37,3.29,5.21-.25,4,2c-1.59,3-4.41,5-3.83,8.74a12.62,12.62,0,0,0,1.52,4.42c1.5,2.6,4,4.24,6.61,5.63.83.45,1.68.95,2.55,1.33a18.21,18.21,0,0,0,6.3,1.45,22.31,22.31,0,0,0,3.27,0,7.54,7.54,0,0,0,3.1-.59,4.51,4.51,0,0,0,1.54-1.62,5,5,0,0,0,.23-3.38,8.28,8.28,0,0,1,0-3.64c.46-1.59,1.75-4.5,4.55-1.3s3.79,5.63,7.75,4,6.74-7.67,6.62-13.17"/><path class="cls-4" d="M101.89,268.57s4.62-6.4,8.81-8.47,8-3.56,10.25,2.85c.53,1.47,1.33,4.21,3.12,4.66,1.24.3,2.55-.63,3.46-1.37a11.52,11.52,0,0,0,2.54-3.53c.45-.76.93-1.51,1.44-2.23a9.73,9.73,0,0,1,3.54-3.5c3-1.35,5.46-.38,7.25,3.59s.95,6.52.95,6.52"/><ellipse class="cls-8" cx="113.16" cy="109.41" rx="4.7" ry="2.59" transform="translate(-7.4 210.61) rotate(-84.05)"/><ellipse class="cls-8" cx="84.89" cy="160.32" rx="1.75" ry="0.82" transform="translate(-83.37 228.11) rotate(-84.05)"/><ellipse class="cls-8" cx="101.32" cy="198.32" rx="0.82" ry="1.75" transform="translate(-26.93 16.25) rotate(-8.1)"/><ellipse class="cls-8" cx="140.96" cy="184.5" rx="0.82" ry="1.75"/><ellipse class="cls-8" cx="129.73" cy="182.34" rx="0.82" ry="1.75" transform="translate(-50.28 49.39) rotate(-18.12)"/><ellipse class="cls-8" cx="158.35" cy="229.86" rx="1.75" ry="0.82" transform="translate(-98.06 340.14) rotate(-78.71)"/><ellipse class="cls-8" cx="58.45" cy="184" rx="1.75" ry="0.82" transform="translate(-132.24 214.18) rotate(-81.37)"/><ellipse class="cls-8" cx="19.78" cy="247.84" rx="1.75" ry="0.82" transform="translate(-169.45 86.58) rotate(-45)"/><ellipse class="cls-8" cx="96.02" cy="107.22" rx="4.52" ry="2.49" transform="translate(-20.58 191.59) rotate(-84.05)"/><ellipse class="cls-8" cx="134.31" cy="33.61" rx="1.64" ry="0.82" transform="translate(94.26 166.15) rotate(-87.23)"/><path class="cls-8" d="M115.21,38.16,115,39.44l1.07.17Z"/><path class="cls-8" d="M150.83,34.39a105.07,105.07,0,0,0-4-18.31c-1.72-5.28-4.11-11.15-8.68-14.52A7.08,7.08,0,0,0,133.27,0c-4.25.43-6.46,4.9-8.08,8.16l-.52,1.06a96.45,96.45,0,0,0-6.89,17.46.71.71,0,0,1,.11.17c.58,1,.09,2.4-1.12,3.66l-.15.58c-.16.69-.3,1.41-.45,2.11l1.11,2c.25-1.26.52-2.51.8-3.72A94.94,94.94,0,0,1,126,9.93c.18-.34.35-.7.54-1.07,1.54-3.12,3.45-7,6.88-7.34a5.66,5.66,0,0,1,3.82,1.24c4.23,3.13,6.49,8.73,8.15,13.79a104,104,0,0,1,4,18.05c.49,3.46.8,6.3,1,8.93l1.49-.1C151.63,40.76,151.32,37.89,150.83,34.39Z"/></g></g></svg>